# xmcd CD database file
#
# Track frame offsets:
#	150
#	8387
#	22006
#	34559
#	52273
#	71023
#	87346
#	100056
#	114649
#	129475
#	139518
#	148229
#	161297
#	176626
#	189743
#	202831
#	214896
#	228879
#	241450
#	257808
#	268288
#	282222
#	299699
#
# Disc length: 4267 seconds
#
# Revision: 0
# Processed by: cddbd v1.5.2PL0 Copyright (c) Steve Scherf et al.
# Submitted via: CDex 1.70beta2
#
DISCID=5910a917
DTITLE=Elvis Presley - The Country Side Of Elvis CD 2
DYEAR=1900
DGENRE=Country
TTITLE0=Little Cabin On The Hill
TTITLE1=There Goes My Everything
TTITLE2=I Really Dont Want To Know
TTITLE3=Tomorrow Never Comes
TTITLE4=Faded Love
TTITLE5=Make The World Go Away
TTITLE6=Help Me Make It Through The Ni
TTITLE7=For The Good Times
TTITLE8=You Gave Me A Moutain
TTITLE9=Im So Lonesome I Could Cry
TTITLE10=Welcome To My World
TTITLE11=Take Good Care Of Her
TTITLE12=It's Midnight
TTITLE13=You Asked Me To
TTITLE14=Loving Arms
TTITLE15=Talk About The Good Times
TTITLE16=Theres A Honkey Tonk Angel
TTITLE17=Fairytale
TTITLE18=Green, Green Grass Of Home
TTITLE19=Susan When She Tried
TTITLE20=T-R-O-U-B-L-E
TTITLE21=She Still Thinks I Care
TTITLE22=He Will Have To Go
EXTD=
EXTT0=
EXTT1=
EXTT2=
EXTT3=
EXTT4=
EXTT5=
EXTT6=
EXTT7=
EXTT8=
EXTT9=
EXTT10=
EXTT11=
EXTT12=
EXTT13=
EXTT14=
EXTT15=
EXTT16=
EXTT17=
EXTT18=
EXTT19=
EXTT20=
EXTT21=
EXTT22=
PLAYORDER=
